<svg id="Layer_1" data-name="Layer 1" xmlns="http://www.w3.org/2000/svg" viewBox="0 0 159 57.13"><defs><style>.cls-1{fill:#fff;fill-rule:evenodd;}</style></defs><title>Bulle97%</title><g id="Page-1"><g id="Page-1-2" data-name="Page-1"><g id="Artboard"><g id="Group-Copy"><path id="Rectangle" class="cls-1" d="M3.15,0h152.7C157.63,0,159,1.08,159,2.5V46.7c0,1.42-1.37,2.51-3.15,2.51H89.69a6.9,6.9,0,0,0-5.57,2.58L81,56c-.53.84-1,1.4-2,1a5,5,0,0,1-1-1l-2.81-4.12a6.57,6.57,0,0,0-5.57-2.67H3.15C1.37,49.21,0,48.12,0,46.7V2.5C0,1.08,1.37,0,3.15,0Z" transform="translate(0)"/></g></g></g></g></svg>