<?xml version="1.0" encoding="UTF-8"?>
<svg width="208px" height="71px" viewBox="0 0 208 71" version="1.1" xmlns="http://www.w3.org/2000/svg" xmlns:xlink="http://www.w3.org/1999/xlink">
    <!-- Generator: sketchtool 52.5 (67469) - http://www.bohemiancoding.com/sketch -->
    <title>E4A82B2C-691A-4EA8-9FB5-F78A229DCCE3@2x</title>
    <desc>Created with sketchtool.</desc>
    <g id="UI-HP" stroke="none" stroke-width="1" fill="none" fill-rule="evenodd">
        <g id="quote_revision-copy-2" transform="translate(-506.000000, -535.000000)" fill="#FFBC47">
            <g id="Group-11" transform="translate(115.000000, 199.000000)">
                <g id="Group" transform="translate(391.000000, 336.000000)">
                    <path d="M17.376194,-2.62406422e-17 L204.578796,4.4408921e-16 C206.23565,1.63271341e-14 207.578796,1.34314575 207.578796,3 L207.578796,67.020004 C207.578796,68.6768583 206.23565,70.020004 204.578796,70.020004 L17.376194,70.020004 C15.7193397,70.020004 14.376194,68.6768583 14.376194,67.020004 L14.376194,45.6390862 C14.376194,44.4413014 13.6637073,43.3583032 12.5637674,42.8841507 L1.81319283,38.2498874 C0.291683988,37.5940088 -0.410047913,35.8288874 0.245830764,34.3073786 C0.517861657,33.6763207 0.998297884,33.1577837 1.60680218,32.8384761 L12.770158,26.9805962 C13.7576294,26.4624286 14.376194,25.4392872 14.376194,24.3241203 L14.376194,3 C14.376194,1.34314575 15.7193397,1.56623761e-13 17.376194,1.56319402e-13 Z" id="Rectangle"></path>
                </g>
            </g>
        </g>
    </g>
</svg>